<?xml version="1.0" encoding="utf-8"?>
<svg fill="white" xmlns="http://www.w3.org/2000/svg" viewBox="0 0 161.8 41.8">
    <path id="ja" d="M46.1 9.5H46c-1.7-2.7-4.4-4.1-8.2-4.1-6.2 0-11.1 3.9-13 9.7V.1h-11v22.8c0 4.3-2.8 8.4-7 8.4H.1v9.9h6.7c10.3 0 17.3-6.4 18-15.7 1.8 5.9 6.8 9.9 13.1 9.9 3.8 0 6.6-1.4 8.2-4.1h.1l.3 3.4h8.1V5.9h-8.1l-.4 3.6zm-7.3 17c-3.3 0-6.1-2.8-6.1-6.1s2.8-6.1 6.1-6.1 6.1 2.8 6.1 6.1-2.7 6.1-6.1 6.1z"/>
    <path id="z1" d="M55.7 14.3h12l-12 12.2v8.3h24.7v-8.3H67.3l13.1-12.2V5.9H55.7z"/>
    <path id="z2" d="M106.3 14.3V5.9H81.5v8.4h12l-12 12.2v8.3h24.8v-8.3H93.4z"/>
    <path opacity=".5" id="hr" d="M124 16.7h-8.3V5.9h-8.2v28.9h8.2V24.3h8.3v10.5h8.2V5.9H124m33 8.9c0-4.9-3.7-8.9-9-8.9h-14.7v28.9h8.2v-9.7h3.3l5 9.7h9.1l-6.3-12.5c2.8-1.7 4.4-4.3 4.4-7.5zm-11.1 4.1s-.1 0 0 0h-4.3v-6.6h4.3c1.6 0 2.8 1.5 2.8 3.3 0 1.8-1.2 3.2-2.8 3.3zm10.8-13c-.1 0-.1 0 0 0l-.1.5s0 .1.1.1h.5v1.9s0 .1.1.1h.4s.1 0 .1-.1v-2h.5s.1 0 .1-.1v-.4s0-.1-.1-.1h-1.6zm4.2 0s0-.1 0 0l-.1-.1h-.1l-.8 1.6-.8-1.6h-.1s-.1 0-.1.1l-.4 2.4s0 .1.1.1h.4s.1 0 .1-.1l.2-1.1.6 1.2h.3l.6-1.2.2 1.1s0 .1.1.1h.4s.1 0 .1-.1l-.7-2.4z"/>
</svg>
